<svg width="16" height="16" viewBox="0 0 24 24" fill="none" xmlns="http://www.w3.org/2000/svg">
  <path fill-rule="evenodd" clip-rule="evenodd" d="M12 0.297333C5.4 0.297333 0 5.69733 0 12.2973C0 17.3853 3.432 21.6827 8.20533 23.2973C8.80533 23.4053 9.024 23.0347 9.024 22.7227C9.024 22.4347 9.01467 21.6873 9.00933 20.688C5.66933 21.4393 4.96533 19.3507 4.96533 19.3507C4.452 18.0467 3.72 17.6827 3.72 17.6827C2.68533 17.0227 3.804 17.0373 3.804 17.0373C4.95333 17.1153 5.55933 18.2027 5.55933 18.2027C6.58533 20.0093 8.28067 19.4987 8.96533 19.2133C9.072 18.4807 9.372 17.964 9.72 17.672C7.08 17.3773 4.32 16.3513 4.32 11.6427C4.32 10.2987 4.824 9.20267 5.66133 8.35467C5.52533 8.06133 5.06133 6.83533 5.76 5.12533C5.76 5.12533 6.74133 4.80533 8.98533 6.40467C9.94533 6.11867 10.968 5.976 11.9893 5.97067C13.0107 5.976 14.0347 6.11867 14.9947 6.40467C17.2387 4.80533 18.22 5.12533 18.22 5.12533C18.9187 6.83533 18.4533 8.06133 18.3173 8.35467C19.1547 9.20267 19.6587 10.2987 19.6587 11.6427C19.6587 16.3653 16.8933 17.3733 14.2413 17.6627C14.7013 18.048 15.1093 18.8267 15.1093 19.9387C15.1093 21.5293 15.0933 22.73 15.0933 22.7227C15.0933 23.0373 15.3093 23.4107 15.9213 23.2933C20.6953 21.6827 24 17.3853 24 12.2973C24 5.69733 18.6 0.297333 12 0.297333Z" fill="white"/>
</svg>